<mxfile host="Electron" modified="2023-12-02T21:24:52.540Z" agent="Mozilla/5.0 (X11; Linux x86_64) AppleWebKit/537.36 (KHTML, like Gecko) draw.io/22.1.2 Chrome/114.0.5735.289 Electron/25.9.4 Safari/537.36" etag="xyFuwecqPJ1RIBffIj3g" version="22.1.2" type="device">
  <diagram name="Page-1" id="W3q--jMVsV_83Yh1lOWC">
    <mxGraphModel dx="2206" dy="1289" grid="1" gridSize="10" guides="1" tooltips="1" connect="1" arrows="1" fold="1" page="1" pageScale="1" pageWidth="850" pageHeight="1100" math="0" shadow="0">
      <root>
        <mxCell id="0" />
        <mxCell id="1" parent="0" />
        <mxCell id="2Ozlw3XE5ivw8p6_2fiQ-21" value="" style="group;fontSize=16;" vertex="1" connectable="0" parent="1">
          <mxGeometry x="112.65" y="111" width="624.71" height="879" as="geometry" />
        </mxCell>
        <mxCell id="2Ozlw3XE5ivw8p6_2fiQ-2" value="FUNCION posicionPeli (&amp;lt;E/S&amp;gt; producto: arrPelis[ ], &amp;lt;E&amp;gt; clave, &amp;lt;E&amp;gt; n) -&amp;gt; ENTERO" style="ellipse;whiteSpace=wrap;html=1;fontSize=16;" vertex="1" parent="2Ozlw3XE5ivw8p6_2fiQ-21">
          <mxGeometry width="624.71" height="80.51908396946567" as="geometry" />
        </mxCell>
        <mxCell id="2Ozlw3XE5ivw8p6_2fiQ-4" value="i &amp;lt;- 0" style="whiteSpace=wrap;html=1;fontSize=16;" vertex="1" parent="2Ozlw3XE5ivw8p6_2fiQ-21">
          <mxGeometry x="265.50175" y="147.61832061068702" width="93.70649999999999" height="26.83969465648855" as="geometry" />
        </mxCell>
        <mxCell id="2Ozlw3XE5ivw8p6_2fiQ-1" value="" style="edgeStyle=orthogonalEdgeStyle;rounded=0;orthogonalLoop=1;jettySize=auto;html=1;fontSize=16;" edge="1" parent="2Ozlw3XE5ivw8p6_2fiQ-21" source="2Ozlw3XE5ivw8p6_2fiQ-2" target="2Ozlw3XE5ivw8p6_2fiQ-4">
          <mxGeometry relative="1" as="geometry" />
        </mxCell>
        <mxCell id="2Ozlw3XE5ivw8p6_2fiQ-6" style="edgeStyle=orthogonalEdgeStyle;rounded=0;orthogonalLoop=1;jettySize=auto;html=1;exitX=0.961;exitY=0.494;exitDx=0;exitDy=0;exitPerimeter=0;fontSize=16;" edge="1" parent="2Ozlw3XE5ivw8p6_2fiQ-21" source="2Ozlw3XE5ivw8p6_2fiQ-8">
          <mxGeometry relative="1" as="geometry">
            <mxPoint x="312.355" y="469.6946564885496" as="targetPoint" />
            <mxPoint x="425.48998099999983" y="285.3596335877862" as="sourcePoint" />
            <Array as="points">
              <mxPoint x="425.58368750000005" y="295.23664122137404" />
              <mxPoint x="554.430125" y="295.23664122137404" />
              <mxPoint x="554.430125" y="456.2748091603053" />
            </Array>
          </mxGeometry>
        </mxCell>
        <mxCell id="2Ozlw3XE5ivw8p6_2fiQ-7" value="NO" style="edgeLabel;html=1;align=center;verticalAlign=middle;resizable=0;points=[];fontSize=16;" vertex="1" connectable="0" parent="2Ozlw3XE5ivw8p6_2fiQ-6">
          <mxGeometry x="-0.6924" relative="1" as="geometry">
            <mxPoint as="offset" />
          </mxGeometry>
        </mxCell>
        <mxCell id="2Ozlw3XE5ivw8p6_2fiQ-8" value="arrPelis[i].clave = clave" style="rhombus;whiteSpace=wrap;html=1;fontSize=16;" vertex="1" parent="2Ozlw3XE5ivw8p6_2fiQ-21">
          <mxGeometry x="187.41299999999998" y="241.55725190839692" width="249.88399999999996" height="107.3587786259542" as="geometry" />
        </mxCell>
        <mxCell id="2Ozlw3XE5ivw8p6_2fiQ-3" style="edgeStyle=orthogonalEdgeStyle;rounded=0;orthogonalLoop=1;jettySize=auto;html=1;fontSize=16;" edge="1" parent="2Ozlw3XE5ivw8p6_2fiQ-21" source="2Ozlw3XE5ivw8p6_2fiQ-4" target="2Ozlw3XE5ivw8p6_2fiQ-8">
          <mxGeometry relative="1" as="geometry" />
        </mxCell>
        <mxCell id="2Ozlw3XE5ivw8p6_2fiQ-10" value="REGRESA i" style="whiteSpace=wrap;html=1;fontSize=16;" vertex="1" parent="2Ozlw3XE5ivw8p6_2fiQ-21">
          <mxGeometry x="252.48695833333332" y="416.01526717557255" width="119.73608333333334" height="26.83969465648855" as="geometry" />
        </mxCell>
        <mxCell id="2Ozlw3XE5ivw8p6_2fiQ-5" value="" style="edgeStyle=orthogonalEdgeStyle;rounded=0;orthogonalLoop=1;jettySize=auto;html=1;fontSize=16;" edge="1" parent="2Ozlw3XE5ivw8p6_2fiQ-21" source="2Ozlw3XE5ivw8p6_2fiQ-8" target="2Ozlw3XE5ivw8p6_2fiQ-10">
          <mxGeometry relative="1" as="geometry" />
        </mxCell>
        <mxCell id="2Ozlw3XE5ivw8p6_2fiQ-12" value="i &amp;lt;- i + 1" style="whiteSpace=wrap;html=1;fontSize=16;" vertex="1" parent="2Ozlw3XE5ivw8p6_2fiQ-21">
          <mxGeometry x="265.50175" y="509.9541984732825" width="93.70649999999999" height="26.83969465648855" as="geometry" />
        </mxCell>
        <mxCell id="2Ozlw3XE5ivw8p6_2fiQ-9" value="" style="edgeStyle=orthogonalEdgeStyle;rounded=0;orthogonalLoop=1;jettySize=auto;html=1;fontSize=16;" edge="1" parent="2Ozlw3XE5ivw8p6_2fiQ-21" source="2Ozlw3XE5ivw8p6_2fiQ-10" target="2Ozlw3XE5ivw8p6_2fiQ-12">
          <mxGeometry relative="1" as="geometry" />
        </mxCell>
        <mxCell id="2Ozlw3XE5ivw8p6_2fiQ-13" style="edgeStyle=orthogonalEdgeStyle;rounded=0;orthogonalLoop=1;jettySize=auto;html=1;exitX=0;exitY=0.5;exitDx=0;exitDy=0;fontSize=16;" edge="1" parent="2Ozlw3XE5ivw8p6_2fiQ-21" source="2Ozlw3XE5ivw8p6_2fiQ-17">
          <mxGeometry relative="1" as="geometry">
            <mxPoint x="312.355" y="201.29770992366414" as="targetPoint" />
            <mxPoint x="265.50175" y="603.8931297709923" as="sourcePoint" />
            <Array as="points">
              <mxPoint x="98.91241666666666" y="617.3129770992366" />
              <mxPoint x="98.91241666666666" y="201.29770992366414" />
            </Array>
          </mxGeometry>
        </mxCell>
        <mxCell id="2Ozlw3XE5ivw8p6_2fiQ-14" value="SI" style="edgeLabel;html=1;align=center;verticalAlign=middle;resizable=0;points=[];fontSize=16;" vertex="1" connectable="0" parent="2Ozlw3XE5ivw8p6_2fiQ-13">
          <mxGeometry x="-0.86" y="-1" relative="1" as="geometry">
            <mxPoint y="10" as="offset" />
          </mxGeometry>
        </mxCell>
        <mxCell id="2Ozlw3XE5ivw8p6_2fiQ-17" value="i &amp;lt; n" style="rhombus;whiteSpace=wrap;html=1;fontSize=16;" vertex="1" parent="2Ozlw3XE5ivw8p6_2fiQ-21">
          <mxGeometry x="260.2958333333333" y="590.4732824427481" width="104.11833333333333" height="53.6793893129771" as="geometry" />
        </mxCell>
        <mxCell id="2Ozlw3XE5ivw8p6_2fiQ-11" style="edgeStyle=orthogonalEdgeStyle;rounded=0;orthogonalLoop=1;jettySize=auto;html=1;fontSize=16;" edge="1" parent="2Ozlw3XE5ivw8p6_2fiQ-21" source="2Ozlw3XE5ivw8p6_2fiQ-12" target="2Ozlw3XE5ivw8p6_2fiQ-17">
          <mxGeometry relative="1" as="geometry" />
        </mxCell>
        <mxCell id="2Ozlw3XE5ivw8p6_2fiQ-19" value="REGRESA 50" style="whiteSpace=wrap;html=1;fontSize=16;" vertex="1" parent="2Ozlw3XE5ivw8p6_2fiQ-21">
          <mxGeometry x="252.48695833333332" y="724.6717557251909" width="119.73608333333334" height="26.83969465648855" as="geometry" />
        </mxCell>
        <mxCell id="2Ozlw3XE5ivw8p6_2fiQ-15" value="" style="edgeStyle=orthogonalEdgeStyle;rounded=0;orthogonalLoop=1;jettySize=auto;html=1;fontSize=16;" edge="1" parent="2Ozlw3XE5ivw8p6_2fiQ-21" source="2Ozlw3XE5ivw8p6_2fiQ-17" target="2Ozlw3XE5ivw8p6_2fiQ-19">
          <mxGeometry relative="1" as="geometry" />
        </mxCell>
        <mxCell id="2Ozlw3XE5ivw8p6_2fiQ-16" value="NO" style="edgeLabel;html=1;align=center;verticalAlign=middle;resizable=0;points=[];fontSize=16;" vertex="1" connectable="0" parent="2Ozlw3XE5ivw8p6_2fiQ-15">
          <mxGeometry x="-0.1143" y="-1" relative="1" as="geometry">
            <mxPoint as="offset" />
          </mxGeometry>
        </mxCell>
        <mxCell id="2Ozlw3XE5ivw8p6_2fiQ-20" value="FIN_posicionProd" style="ellipse;whiteSpace=wrap;html=1;fontSize=16;" vertex="1" parent="2Ozlw3XE5ivw8p6_2fiQ-21">
          <mxGeometry x="234.26625000000004" y="818.6106870229007" width="156.1775" height="60.38931297709923" as="geometry" />
        </mxCell>
        <mxCell id="2Ozlw3XE5ivw8p6_2fiQ-18" style="edgeStyle=orthogonalEdgeStyle;rounded=0;orthogonalLoop=1;jettySize=auto;html=1;fontSize=16;" edge="1" parent="2Ozlw3XE5ivw8p6_2fiQ-21" source="2Ozlw3XE5ivw8p6_2fiQ-19" target="2Ozlw3XE5ivw8p6_2fiQ-20">
          <mxGeometry relative="1" as="geometry" />
        </mxCell>
      </root>
    </mxGraphModel>
  </diagram>
</mxfile>
